<mxfile host="Electron" modified="2023-11-15T10:23:12.307Z" agent="Mozilla/5.0 (Windows NT 10.0; Win64; x64) AppleWebKit/537.36 (KHTML, like Gecko) draw.io/22.0.3 Chrome/114.0.5735.289 Electron/25.8.4 Safari/537.36" etag="ETqLZsM_NZierN_knvb0" version="22.0.3" type="device">
  <diagram name="第 1 页" id="JGw6gEklkZNBymcla1pM">
    <mxGraphModel dx="915" dy="683" grid="1" gridSize="10" guides="1" tooltips="1" connect="1" arrows="1" fold="1" page="1" pageScale="1" pageWidth="827" pageHeight="1169" math="0" shadow="0">
      <root>
        <mxCell id="0" />
        <mxCell id="1" parent="0" />
        <mxCell id="oPnRz07SeRWzR0Lnksd_-1" value="&lt;font style=&quot;font-size: 18px;&quot;&gt;&lt;b&gt;ATM machine&lt;/b&gt;&lt;/font&gt;" style="rounded=0;whiteSpace=wrap;html=1;" vertex="1" parent="1">
          <mxGeometry x="240" y="30" width="246" height="110" as="geometry" />
        </mxCell>
        <mxCell id="oPnRz07SeRWzR0Lnksd_-2" value="&lt;font style=&quot;font-size: 14px;&quot;&gt;Login&lt;/font&gt;" style="rounded=1;whiteSpace=wrap;html=1;" vertex="1" parent="1">
          <mxGeometry x="440.73" y="200" width="100" height="100" as="geometry" />
        </mxCell>
        <mxCell id="oPnRz07SeRWzR0Lnksd_-3" value="&lt;font style=&quot;font-size: 14px;&quot;&gt;Register&lt;/font&gt;" style="rounded=1;whiteSpace=wrap;html=1;" vertex="1" parent="1">
          <mxGeometry x="50" y="200" width="100" height="100" as="geometry" />
        </mxCell>
        <mxCell id="oPnRz07SeRWzR0Lnksd_-5" value="" style="endArrow=none;dashed=1;html=1;dashPattern=1 3;strokeWidth=2;rounded=0;entryX=0.467;entryY=0.18;entryDx=0;entryDy=0;entryPerimeter=0;" edge="1" parent="1" target="oPnRz07SeRWzR0Lnksd_-6">
          <mxGeometry width="50" height="50" relative="1" as="geometry">
            <mxPoint x="414" y="140" as="sourcePoint" />
            <mxPoint x="780" y="160" as="targetPoint" />
          </mxGeometry>
        </mxCell>
        <mxCell id="oPnRz07SeRWzR0Lnksd_-6" value="&lt;font style=&quot;font-size: 14px;&quot;&gt;Quit&lt;/font&gt;" style="shape=tape;whiteSpace=wrap;html=1;" vertex="1" parent="1">
          <mxGeometry x="660" y="130" width="60" height="60" as="geometry" />
        </mxCell>
        <mxCell id="oPnRz07SeRWzR0Lnksd_-8" value="Account" style="swimlane;fontStyle=0;childLayout=stackLayout;horizontal=1;startSize=30;horizontalStack=0;resizeParent=1;resizeParentMax=0;resizeLast=0;collapsible=1;marginBottom=0;whiteSpace=wrap;html=1;" vertex="1" parent="1">
          <mxGeometry x="20" y="360" width="140" height="140" as="geometry">
            <mxRectangle y="360" width="80" height="30" as="alternateBounds" />
          </mxGeometry>
        </mxCell>
        <mxCell id="oPnRz07SeRWzR0Lnksd_-10" value="String CardID&lt;br&gt;String UserName&lt;br&gt;Char Gender&lt;br&gt;String Password&lt;br&gt;Double Balance&lt;br&gt;Double Quota" style="text;strokeColor=none;fillColor=none;align=left;verticalAlign=middle;spacingLeft=4;spacingRight=4;overflow=hidden;points=[[0,0.5],[1,0.5]];portConstraint=eastwest;rotatable=0;whiteSpace=wrap;html=1;" vertex="1" parent="oPnRz07SeRWzR0Lnksd_-8">
          <mxGeometry y="30" width="140" height="110" as="geometry" />
        </mxCell>
        <mxCell id="oPnRz07SeRWzR0Lnksd_-13" value="ArrayList&amp;lt;Account&amp;gt;" style="rounded=1;whiteSpace=wrap;html=1;" vertex="1" parent="1">
          <mxGeometry x="40" y="560" width="120" height="60" as="geometry" />
        </mxCell>
        <mxCell id="oPnRz07SeRWzR0Lnksd_-14" value="" style="endArrow=classic;html=1;rounded=0;" edge="1" parent="1">
          <mxGeometry relative="1" as="geometry">
            <mxPoint x="99.58" y="500" as="sourcePoint" />
            <mxPoint x="99.58" y="560" as="targetPoint" />
          </mxGeometry>
        </mxCell>
        <mxCell id="oPnRz07SeRWzR0Lnksd_-15" value=".add(account)" style="edgeLabel;resizable=0;html=1;align=center;verticalAlign=middle;" connectable="0" vertex="1" parent="oPnRz07SeRWzR0Lnksd_-14">
          <mxGeometry relative="1" as="geometry" />
        </mxCell>
        <mxCell id="oPnRz07SeRWzR0Lnksd_-18" value="" style="endArrow=classic;html=1;rounded=0;" edge="1" parent="1">
          <mxGeometry relative="1" as="geometry">
            <mxPoint x="99.66" y="300" as="sourcePoint" />
            <mxPoint x="99.66" y="360" as="targetPoint" />
          </mxGeometry>
        </mxCell>
        <mxCell id="oPnRz07SeRWzR0Lnksd_-19" value="new Account()" style="edgeLabel;resizable=0;html=1;align=center;verticalAlign=middle;" connectable="0" vertex="1" parent="oPnRz07SeRWzR0Lnksd_-18">
          <mxGeometry relative="1" as="geometry" />
        </mxCell>
        <mxCell id="oPnRz07SeRWzR0Lnksd_-23" value="" style="endArrow=classic;html=1;rounded=0;entryX=0.499;entryY=-0.046;entryDx=0;entryDy=0;entryPerimeter=0;" edge="1" parent="1" target="oPnRz07SeRWzR0Lnksd_-3">
          <mxGeometry relative="1" as="geometry">
            <mxPoint x="370.34000000000003" y="140" as="sourcePoint" />
            <mxPoint x="200" y="310" as="targetPoint" />
          </mxGeometry>
        </mxCell>
        <mxCell id="oPnRz07SeRWzR0Lnksd_-24" value="case 1" style="edgeLabel;resizable=0;html=1;align=center;verticalAlign=middle;" connectable="0" vertex="1" parent="oPnRz07SeRWzR0Lnksd_-23">
          <mxGeometry relative="1" as="geometry" />
        </mxCell>
        <mxCell id="oPnRz07SeRWzR0Lnksd_-25" value="" style="endArrow=classic;html=1;rounded=0;entryX=0.5;entryY=0;entryDx=0;entryDy=0;exitX=0.536;exitY=1.014;exitDx=0;exitDy=0;exitPerimeter=0;" edge="1" parent="1" source="oPnRz07SeRWzR0Lnksd_-1" target="oPnRz07SeRWzR0Lnksd_-2">
          <mxGeometry relative="1" as="geometry">
            <mxPoint x="460.34000000000003" y="160" as="sourcePoint" />
            <mxPoint x="160" y="215" as="targetPoint" />
          </mxGeometry>
        </mxCell>
        <mxCell id="oPnRz07SeRWzR0Lnksd_-26" value="case 2" style="edgeLabel;resizable=0;html=1;align=center;verticalAlign=middle;" connectable="0" vertex="1" parent="oPnRz07SeRWzR0Lnksd_-25">
          <mxGeometry relative="1" as="geometry" />
        </mxCell>
        <mxCell id="oPnRz07SeRWzR0Lnksd_-27" value="case 3" style="text;html=1;align=center;verticalAlign=middle;resizable=0;points=[];autosize=1;strokeColor=none;fillColor=none;" vertex="1" parent="1">
          <mxGeometry x="540" y="120" width="60" height="30" as="geometry" />
        </mxCell>
        <mxCell id="oPnRz07SeRWzR0Lnksd_-28" value="if(.isEmpty())" style="rhombus;whiteSpace=wrap;html=1;fontStyle=1" vertex="1" parent="1">
          <mxGeometry x="450.73" y="330" width="80" height="80" as="geometry" />
        </mxCell>
        <mxCell id="oPnRz07SeRWzR0Lnksd_-31" value="" style="endArrow=classic;html=1;rounded=0;entryX=0.5;entryY=0;entryDx=0;entryDy=0;" edge="1" parent="1" target="oPnRz07SeRWzR0Lnksd_-28">
          <mxGeometry relative="1" as="geometry">
            <mxPoint x="490.73" y="300" as="sourcePoint" />
            <mxPoint x="440.73" y="330" as="targetPoint" />
          </mxGeometry>
        </mxCell>
        <mxCell id="oPnRz07SeRWzR0Lnksd_-32" value="check" style="edgeLabel;resizable=0;html=1;align=center;verticalAlign=middle;" connectable="0" vertex="1" parent="oPnRz07SeRWzR0Lnksd_-31">
          <mxGeometry relative="1" as="geometry" />
        </mxCell>
        <mxCell id="oPnRz07SeRWzR0Lnksd_-34" value="" style="endArrow=classic;html=1;rounded=0;exitX=0;exitY=0.5;exitDx=0;exitDy=0;entryX=1.037;entryY=0.513;entryDx=0;entryDy=0;entryPerimeter=0;" edge="1" parent="1" source="oPnRz07SeRWzR0Lnksd_-28" target="oPnRz07SeRWzR0Lnksd_-3">
          <mxGeometry relative="1" as="geometry">
            <mxPoint x="280" y="310" as="sourcePoint" />
            <mxPoint x="210" y="280" as="targetPoint" />
          </mxGeometry>
        </mxCell>
        <mxCell id="oPnRz07SeRWzR0Lnksd_-35" value="YES, go back to register step" style="edgeLabel;resizable=0;html=1;align=center;verticalAlign=middle;" connectable="0" vertex="1" parent="oPnRz07SeRWzR0Lnksd_-34">
          <mxGeometry relative="1" as="geometry" />
        </mxCell>
        <mxCell id="oPnRz07SeRWzR0Lnksd_-36" value="" style="endArrow=classic;html=1;rounded=0;exitX=0.5;exitY=1;exitDx=0;exitDy=0;" edge="1" parent="1" source="oPnRz07SeRWzR0Lnksd_-28">
          <mxGeometry relative="1" as="geometry">
            <mxPoint x="470.73" y="480" as="sourcePoint" />
            <mxPoint x="490" y="460" as="targetPoint" />
          </mxGeometry>
        </mxCell>
        <mxCell id="oPnRz07SeRWzR0Lnksd_-37" value="No" style="edgeLabel;resizable=0;html=1;align=center;verticalAlign=middle;" connectable="0" vertex="1" parent="oPnRz07SeRWzR0Lnksd_-36">
          <mxGeometry relative="1" as="geometry">
            <mxPoint y="-25" as="offset" />
          </mxGeometry>
        </mxCell>
        <mxCell id="oPnRz07SeRWzR0Lnksd_-38" value="Service selector" style="swimlane;whiteSpace=wrap;html=1;" vertex="1" parent="1">
          <mxGeometry x="390.73" y="525.14" width="200" height="265" as="geometry">
            <mxRectangle x="280" y="485" width="130" height="25" as="alternateBounds" />
          </mxGeometry>
        </mxCell>
        <mxCell id="oPnRz07SeRWzR0Lnksd_-40" value="Account information" style="rounded=0;whiteSpace=wrap;html=1;" vertex="1" parent="oPnRz07SeRWzR0Lnksd_-38">
          <mxGeometry y="25" width="200" height="35" as="geometry" />
        </mxCell>
        <mxCell id="oPnRz07SeRWzR0Lnksd_-41" value="Deposit" style="rounded=0;whiteSpace=wrap;html=1;" vertex="1" parent="oPnRz07SeRWzR0Lnksd_-38">
          <mxGeometry y="60" width="200" height="35" as="geometry" />
        </mxCell>
        <mxCell id="oPnRz07SeRWzR0Lnksd_-42" value="Withdraw" style="rounded=0;whiteSpace=wrap;html=1;" vertex="1" parent="oPnRz07SeRWzR0Lnksd_-38">
          <mxGeometry y="95" width="200" height="35" as="geometry" />
        </mxCell>
        <mxCell id="oPnRz07SeRWzR0Lnksd_-43" value="Transfer" style="rounded=0;whiteSpace=wrap;html=1;" vertex="1" parent="oPnRz07SeRWzR0Lnksd_-38">
          <mxGeometry y="130" width="200" height="35" as="geometry" />
        </mxCell>
        <mxCell id="oPnRz07SeRWzR0Lnksd_-44" value="Change password" style="rounded=0;whiteSpace=wrap;html=1;" vertex="1" parent="oPnRz07SeRWzR0Lnksd_-38">
          <mxGeometry y="165" width="200" height="35" as="geometry" />
        </mxCell>
        <mxCell id="oPnRz07SeRWzR0Lnksd_-45" value="Delete account" style="rounded=0;whiteSpace=wrap;html=1;" vertex="1" parent="oPnRz07SeRWzR0Lnksd_-38">
          <mxGeometry y="200" width="200" height="35" as="geometry" />
        </mxCell>
        <mxCell id="oPnRz07SeRWzR0Lnksd_-46" value="Quit" style="rounded=0;whiteSpace=wrap;html=1;" vertex="1" parent="oPnRz07SeRWzR0Lnksd_-38">
          <mxGeometry y="235" width="200" height="35" as="geometry" />
        </mxCell>
        <mxCell id="oPnRz07SeRWzR0Lnksd_-47" value="" style="endArrow=classic;html=1;rounded=0;exitX=0;exitY=0.5;exitDx=0;exitDy=0;entryX=0.994;entryY=0.45;entryDx=0;entryDy=0;entryPerimeter=0;" edge="1" parent="1" source="oPnRz07SeRWzR0Lnksd_-40" target="oPnRz07SeRWzR0Lnksd_-10">
          <mxGeometry relative="1" as="geometry">
            <mxPoint x="171.76" y="460" as="sourcePoint" />
            <mxPoint x="139.9952941176473" y="430" as="targetPoint" />
          </mxGeometry>
        </mxCell>
        <mxCell id="oPnRz07SeRWzR0Lnksd_-48" value="Getter" style="edgeLabel;resizable=0;html=1;align=center;verticalAlign=middle;" connectable="0" vertex="1" parent="oPnRz07SeRWzR0Lnksd_-47">
          <mxGeometry relative="1" as="geometry" />
        </mxCell>
        <mxCell id="oPnRz07SeRWzR0Lnksd_-50" value="Quota &amp;amp; Balance Check" style="rhombus;whiteSpace=wrap;html=1;fontStyle=1" vertex="1" parent="1">
          <mxGeometry x="240" y="530" width="80" height="100" as="geometry" />
        </mxCell>
        <mxCell id="oPnRz07SeRWzR0Lnksd_-51" value="" style="endArrow=classic;html=1;rounded=0;entryX=1;entryY=0.5;entryDx=0;entryDy=0;exitX=0;exitY=0;exitDx=0;exitDy=0;" edge="1" parent="1" source="oPnRz07SeRWzR0Lnksd_-42" target="oPnRz07SeRWzR0Lnksd_-50">
          <mxGeometry width="50" height="50" relative="1" as="geometry">
            <mxPoint x="560.73" y="500" as="sourcePoint" />
            <mxPoint x="360.73" y="580" as="targetPoint" />
          </mxGeometry>
        </mxCell>
        <mxCell id="oPnRz07SeRWzR0Lnksd_-52" value="" style="endArrow=none;html=1;rounded=0;entryX=0;entryY=0.25;entryDx=0;entryDy=0;" edge="1" parent="1" target="oPnRz07SeRWzR0Lnksd_-41">
          <mxGeometry width="50" height="50" relative="1" as="geometry">
            <mxPoint x="340" y="590" as="sourcePoint" />
            <mxPoint x="720.73" y="555" as="targetPoint" />
          </mxGeometry>
        </mxCell>
        <mxCell id="oPnRz07SeRWzR0Lnksd_-53" value="" style="endArrow=none;html=1;rounded=0;exitX=0;exitY=0.75;exitDx=0;exitDy=0;" edge="1" parent="1" source="oPnRz07SeRWzR0Lnksd_-42">
          <mxGeometry width="50" height="50" relative="1" as="geometry">
            <mxPoint x="390.73" y="590" as="sourcePoint" />
            <mxPoint x="340" y="590" as="targetPoint" />
          </mxGeometry>
        </mxCell>
        <mxCell id="oPnRz07SeRWzR0Lnksd_-54" value="" style="endArrow=none;html=1;rounded=0;exitX=0.001;exitY=0.521;exitDx=0;exitDy=0;exitPerimeter=0;" edge="1" parent="1" source="oPnRz07SeRWzR0Lnksd_-43">
          <mxGeometry width="50" height="50" relative="1" as="geometry">
            <mxPoint x="400.73" y="616" as="sourcePoint" />
            <mxPoint x="340" y="590" as="targetPoint" />
          </mxGeometry>
        </mxCell>
        <mxCell id="oPnRz07SeRWzR0Lnksd_-55" value="" style="endArrow=classic;html=1;rounded=0;entryX=1.002;entryY=0.458;entryDx=0;entryDy=0;exitX=0;exitY=0.5;exitDx=0;exitDy=0;entryPerimeter=0;" edge="1" parent="1" source="oPnRz07SeRWzR0Lnksd_-50" target="oPnRz07SeRWzR0Lnksd_-10">
          <mxGeometry relative="1" as="geometry">
            <mxPoint x="310" y="510" as="sourcePoint" />
            <mxPoint x="410" y="510" as="targetPoint" />
          </mxGeometry>
        </mxCell>
        <mxCell id="oPnRz07SeRWzR0Lnksd_-56" value="Setter" style="edgeLabel;resizable=0;html=1;align=center;verticalAlign=middle;" connectable="0" vertex="1" parent="oPnRz07SeRWzR0Lnksd_-55">
          <mxGeometry relative="1" as="geometry" />
        </mxCell>
        <mxCell id="oPnRz07SeRWzR0Lnksd_-57" value="account &lt;br&gt;check" style="rhombus;whiteSpace=wrap;html=1;fontStyle=1" vertex="1" parent="1">
          <mxGeometry x="240" y="650" width="80" height="80" as="geometry" />
        </mxCell>
        <mxCell id="oPnRz07SeRWzR0Lnksd_-58" value="" style="endArrow=classic;html=1;rounded=0;entryX=1;entryY=0.5;entryDx=0;entryDy=0;exitX=0;exitY=0.5;exitDx=0;exitDy=0;" edge="1" parent="1" source="oPnRz07SeRWzR0Lnksd_-43" target="oPnRz07SeRWzR0Lnksd_-57">
          <mxGeometry width="50" height="50" relative="1" as="geometry">
            <mxPoint x="390" y="630" as="sourcePoint" />
            <mxPoint x="440" y="420" as="targetPoint" />
          </mxGeometry>
        </mxCell>
        <mxCell id="oPnRz07SeRWzR0Lnksd_-59" value="" style="endArrow=none;html=1;rounded=0;exitX=0;exitY=0.5;exitDx=0;exitDy=0;" edge="1" parent="1" source="oPnRz07SeRWzR0Lnksd_-57">
          <mxGeometry width="50" height="50" relative="1" as="geometry">
            <mxPoint x="190" y="630" as="sourcePoint" />
            <mxPoint x="240" y="580" as="targetPoint" />
          </mxGeometry>
        </mxCell>
        <mxCell id="oPnRz07SeRWzR0Lnksd_-60" value="" style="endArrow=classic;html=1;rounded=0;entryX=1;entryY=0.5;entryDx=0;entryDy=0;" edge="1" parent="1" target="oPnRz07SeRWzR0Lnksd_-13">
          <mxGeometry relative="1" as="geometry">
            <mxPoint x="240" y="640" as="sourcePoint" />
            <mxPoint x="80" y="620" as="targetPoint" />
          </mxGeometry>
        </mxCell>
        <mxCell id="oPnRz07SeRWzR0Lnksd_-61" value="setter" style="edgeLabel;resizable=0;html=1;align=center;verticalAlign=middle;" connectable="0" vertex="1" parent="oPnRz07SeRWzR0Lnksd_-60">
          <mxGeometry relative="1" as="geometry" />
        </mxCell>
        <mxCell id="oPnRz07SeRWzR0Lnksd_-64" value="" style="curved=1;endArrow=classic;html=1;rounded=0;entryX=0.5;entryY=1;entryDx=0;entryDy=0;exitX=0;exitY=0.5;exitDx=0;exitDy=0;" edge="1" parent="1" source="oPnRz07SeRWzR0Lnksd_-45" target="oPnRz07SeRWzR0Lnksd_-13">
          <mxGeometry width="50" height="50" relative="1" as="geometry">
            <mxPoint x="390" y="700" as="sourcePoint" />
            <mxPoint x="300" y="760" as="targetPoint" />
            <Array as="points">
              <mxPoint x="380" y="750" />
              <mxPoint x="250" y="760" />
              <mxPoint x="60" y="750" />
            </Array>
          </mxGeometry>
        </mxCell>
        <mxCell id="oPnRz07SeRWzR0Lnksd_-65" value=".remove(account)" style="text;html=1;align=center;verticalAlign=middle;resizable=0;points=[];autosize=1;strokeColor=none;fillColor=none;" vertex="1" parent="1">
          <mxGeometry x="80" y="690" width="120" height="30" as="geometry" />
        </mxCell>
        <mxCell id="oPnRz07SeRWzR0Lnksd_-68" value="check &lt;br&gt;balance" style="triangle;whiteSpace=wrap;html=1;direction=west;fontStyle=1" vertex="1" parent="1">
          <mxGeometry x="140" y="710" width="90" height="90" as="geometry" />
        </mxCell>
        <mxCell id="oPnRz07SeRWzR0Lnksd_-72" value="Check/ Setter" style="rounded=0;whiteSpace=wrap;html=1;fontStyle=1" vertex="1" parent="1">
          <mxGeometry x="630" y="485" width="120" height="60" as="geometry" />
        </mxCell>
        <mxCell id="oPnRz07SeRWzR0Lnksd_-73" value="" style="curved=1;endArrow=classic;html=1;rounded=0;entryX=0.5;entryY=1;entryDx=0;entryDy=0;exitX=1;exitY=0.5;exitDx=0;exitDy=0;" edge="1" parent="1" source="oPnRz07SeRWzR0Lnksd_-44" target="oPnRz07SeRWzR0Lnksd_-72">
          <mxGeometry width="50" height="50" relative="1" as="geometry">
            <mxPoint x="660" y="630" as="sourcePoint" />
            <mxPoint x="710" y="580" as="targetPoint" />
            <Array as="points">
              <mxPoint x="690" y="670" />
              <mxPoint x="690" y="660" />
              <mxPoint x="690" y="610" />
            </Array>
          </mxGeometry>
        </mxCell>
        <mxCell id="oPnRz07SeRWzR0Lnksd_-74" value="" style="curved=1;endArrow=classic;html=1;rounded=0;exitX=1;exitY=0.5;exitDx=0;exitDy=0;" edge="1" parent="1" source="oPnRz07SeRWzR0Lnksd_-46">
          <mxGeometry width="50" height="50" relative="1" as="geometry">
            <mxPoint x="590.73" y="740" as="sourcePoint" />
            <mxPoint x="370" y="140" as="targetPoint" />
            <Array as="points">
              <mxPoint x="640" y="770" />
              <mxPoint x="680" y="760" />
              <mxPoint x="710" y="750" />
              <mxPoint x="740" y="740" />
              <mxPoint x="760" y="730" />
              <mxPoint x="780" y="680" />
              <mxPoint x="760" y="220" />
            </Array>
          </mxGeometry>
        </mxCell>
        <mxCell id="oPnRz07SeRWzR0Lnksd_-78" value="" style="endArrow=classic;html=1;rounded=0;exitX=0.5;exitY=0;exitDx=0;exitDy=0;" edge="1" parent="1" source="oPnRz07SeRWzR0Lnksd_-72">
          <mxGeometry relative="1" as="geometry">
            <mxPoint x="640" y="420" as="sourcePoint" />
            <mxPoint x="690" y="280" as="targetPoint" />
          </mxGeometry>
        </mxCell>
        <mxCell id="oPnRz07SeRWzR0Lnksd_-79" value="Quit to main page" style="edgeLabel;resizable=0;html=1;align=center;verticalAlign=middle;" connectable="0" vertex="1" parent="oPnRz07SeRWzR0Lnksd_-78">
          <mxGeometry relative="1" as="geometry" />
        </mxCell>
        <mxCell id="oPnRz07SeRWzR0Lnksd_-81" value="&lt;b&gt;verify cardID/ userName/ passWord&lt;/b&gt;" style="rounded=1;whiteSpace=wrap;html=1;" vertex="1" parent="1">
          <mxGeometry x="430.73" y="460" width="120" height="40" as="geometry" />
        </mxCell>
        <mxCell id="oPnRz07SeRWzR0Lnksd_-82" value="" style="endArrow=classic;html=1;rounded=0;entryX=0.5;entryY=0;entryDx=0;entryDy=0;exitX=0.5;exitY=1;exitDx=0;exitDy=0;" edge="1" parent="1" source="oPnRz07SeRWzR0Lnksd_-81" target="oPnRz07SeRWzR0Lnksd_-38">
          <mxGeometry width="50" height="50" relative="1" as="geometry">
            <mxPoint x="370" y="510" as="sourcePoint" />
            <mxPoint x="420" y="460" as="targetPoint" />
          </mxGeometry>
        </mxCell>
        <mxCell id="oPnRz07SeRWzR0Lnksd_-83" value="" style="curved=1;endArrow=classic;html=1;rounded=0;" edge="1" parent="1">
          <mxGeometry width="50" height="50" relative="1" as="geometry">
            <mxPoint x="100" y="620" as="sourcePoint" />
            <mxPoint x="370" y="140" as="targetPoint" />
            <Array as="points">
              <mxPoint x="10" y="670" />
              <mxPoint x="10" y="530" />
              <mxPoint x="10" y="480" />
              <mxPoint x="10" y="430" />
              <mxPoint x="10" y="280" />
              <mxPoint x="10" y="190" />
              <mxPoint x="50" y="170" />
            </Array>
          </mxGeometry>
        </mxCell>
        <mxCell id="oPnRz07SeRWzR0Lnksd_-84" value="Then quit &lt;br&gt;to main page" style="text;html=1;align=center;verticalAlign=middle;resizable=0;points=[];autosize=1;strokeColor=none;fillColor=none;" vertex="1" parent="1">
          <mxGeometry y="640" width="90" height="40" as="geometry" />
        </mxCell>
      </root>
    </mxGraphModel>
  </diagram>
</mxfile>
